<?xml version="1.0" standalone="no"?>
<!DOCTYPE svg PUBLIC "-//W3C//DTD SVG 20010904//EN"
 "http://www.w3.org/TR/2001/REC-SVG-20010904/DTD/svg10.dtd">
<svg version="1.0" xmlns="http://www.w3.org/2000/svg"
 width="836.000000pt" height="623.000000pt" viewBox="0 0 836.000000 623.000000"
 preserveAspectRatio="xMidYMid meet">

<g transform="translate(0.000000,623.000000) scale(0.100000,-0.100000)"
fill="#000000" stroke="none">
<path d="M1874 6081 c-51 -6 -74 -16 -135 -59 -320 -221 -574 -517 -672 -784
-19 -51 -37 -100 -41 -108 -11 -27 5 93 22 159 20 84 95 229 168 327 71 97
293 320 392 394 40 30 66 56 59 58 -8 2 -74 -6 -148 -17 -487 -71 -836 -216
-1053 -436 -166 -169 -271 -403 -305 -680 -15 -125 -13 -495 4 -710 22 -283
33 -431 41 -555 l7 -115 13 97 c36 280 141 465 316 558 l58 31 0 138 0 137 37
21 c45 25 139 46 283 65 149 19 1358 19 1515 0 146 -18 242 -40 288 -65 l37
-21 1 -140 0 -141 57 -27 c177 -84 299 -316 318 -600 4 -54 10 -98 14 -98 4 0
10 33 13 73 3 39 17 223 32 407 48 621 100 996 159 1142 13 32 19 58 13 58
-17 0 -112 -83 -148 -129 -19 -24 -42 -60 -52 -80 l-18 -36 4 51 c10 138 164
324 358 435 59 34 72 49 44 49 -19 0 -91 36 -124 62 -13 10 -74 65 -135 122
-152 142 -208 188 -277 231 l-60 37 -107 -32 c-518 -152 -938 -446 -1151 -805
-11 -18 -12 -17 -6 8 34 163 178 352 385 504 172 126 441 269 647 344 51 19
93 37 93 40 0 11 -166 51 -315 76 -101 17 -531 26 -631 14z"/>
<path d="M6850 5323 c-134 -12 -292 -90 -379 -189 -128 -145 -152 -362 -61
-544 59 -118 168 -206 366 -295 271 -123 305 -151 312 -255 6 -85 -4 -126 -44
-170 -42 -47 -83 -61 -166 -62 -83 0 -167 28 -324 106 -70 36 -130 64 -131 62
-5 -5 -133 -291 -133 -297 0 -5 45 -31 101 -58 442 -222 867 -153 1046 169 80
144 83 360 7 510 -45 89 -190 200 -349 267 -208 87 -282 141 -314 229 -26 68
-26 85 -1 133 28 57 75 76 180 75 92 0 158 -19 293 -84 47 -23 71 -30 78 -23
16 16 139 235 145 258 4 16 -6 26 -53 51 -159 85 -390 133 -573 117z"/>
<path d="M3716 5248 c-3 -35 -10 -148 -16 -253 -6 -104 -15 -257 -20 -340 -6
-82 -15 -235 -20 -340 -6 -104 -18 -311 -27 -460 -9 -148 -17 -288 -17 -310
l-1 -40 174 -3 c96 -1 178 1 183 6 4 4 12 169 18 367 12 401 18 505 29 505 4
0 33 -60 64 -132 31 -73 93 -216 137 -318 45 -102 104 -237 132 -300 27 -63
55 -118 61 -122 7 -4 67 -8 134 -8 l122 0 15 28 c26 51 268 617 313 732 24 63
48 119 52 123 9 10 17 -110 32 -538 7 -182 16 -325 22 -333 7 -9 52 -12 181
-10 l171 3 -3 95 c-1 52 -7 165 -12 250 -6 85 -15 238 -20 340 -5 102 -17 298
-26 435 -8 138 -21 347 -27 465 l-12 215 -157 3 c-151 2 -158 2 -158 -17 0
-11 -24 -79 -54 -153 -30 -73 -89 -218 -131 -323 -43 -104 -115 -282 -160
-395 -117 -289 -149 -362 -159 -364 -5 0 -41 80 -81 179 -90 223 -375 929
-409 1010 l-24 60 -150 3 -150 3 -6 -63z"/>
<path d="M5853 3930 c-119 -28 -190 -165 -154 -298 14 -50 67 -113 115 -136
77 -36 201 -15 265 45 57 54 80 185 45 267 -41 100 -153 150 -271 122z"/>
<path d="M7825 3926 c-59 -18 -93 -44 -120 -91 -30 -51 -42 -143 -26 -203 14
-50 67 -113 115 -136 42 -20 154 -21 199 -2 43 17 94 69 112 113 20 48 19 165
-1 206 -52 103 -165 149 -279 113z"/>
<path d="M541 3666 c14 -142 63 -253 153 -346 60 -61 122 -102 211 -136 56
-22 92 -28 184 -32 140 -6 197 6 317 63 153 74 265 213 295 367 l12 62 13 -62
c52 -255 293 -432 587 -432 309 1 548 216 574 515 l6 75 -1180 0 -1179 0 7
-74z"/>
<path d="M3265 2868 c-3 -7 -4 -395 -3 -863 l3 -850 285 -3 c219 -2 310 1 393
13 317 46 520 204 611 476 84 251 73 616 -25 836 -87 196 -233 313 -471 375
-76 19 -114 22 -436 25 -286 4 -353 2 -357 -9z m625 -230 c67 -16 159 -62 208
-103 46 -40 112 -144 136 -216 29 -86 46 -204 46 -319 0 -294 -88 -486 -260
-568 -86 -41 -169 -54 -325 -50 l-130 3 -3 628 -2 628 22 9 c28 12 243 4 308
-12z"/>
<path d="M1285 2793 c-51 -7 -57 -11 -46 -32 10 -17 4 -19 -72 -25 -85 -7
-170 -25 -203 -44 -18 -10 -17 -11 10 -22 l30 -11 -62 -40 c-99 -65 -208 -201
-237 -297 -6 -22 -5 -23 17 -17 19 6 14 -2 -22 -40 -62 -64 -127 -110 -175
-125 -34 -10 -47 -9 -78 4 -20 8 -37 11 -37 7 0 -5 28 -35 63 -67 73 -69 140
-95 241 -95 l64 0 13 -132 c15 -152 18 -459 6 -627 l-9 -115 64 87 64 87 13
-90 c28 -200 82 -358 167 -491 56 -87 69 -88 60 -6 l-7 63 30 -48 c43 -66 190
-217 286 -292 156 -122 217 -203 238 -318 l11 -62 8 54 c18 117 62 177 238
324 138 115 223 202 277 284 20 29 37 53 39 53 3 0 -2 -43 -11 -102 -7 -42 8
-34 52 30 98 139 155 309 188 555 l7 49 50 -66 c28 -36 54 -66 57 -66 4 0 3
35 -1 78 -15 171 -1 558 27 719 l6 32 68 0 c91 0 163 28 234 92 62 55 78 89
30 63 -39 -20 -62 -18 -119 11 -62 31 -177 138 -152 143 14 3 15 8 5 35 -33
98 -149 237 -245 297 l-47 29 30 11 c25 10 27 13 14 21 -32 17 -130 38 -214
45 -81 6 -85 8 -70 24 21 24 13 28 -77 36 -91 8 -257 -10 -335 -37 -56 -19
-56 -19 -121 1 -99 31 -269 46 -367 33z m538 -368 c83 -22 143 -55 264 -147
59 -45 148 -112 198 -150 93 -70 109 -79 98 -52 -4 10 18 3 71 -23 42 -20 76
-41 76 -44 0 -20 -111 -169 -169 -227 -57 -58 -167 -142 -185 -142 -3 0 -6 21
-6 47 l0 47 -39 -65 c-53 -88 -96 -121 -164 -127 -69 -6 -126 20 -200 90 l-56
53 -48 -48 c-85 -85 -191 -119 -262 -83 -34 18 -90 79 -116 129 -25 48 -38 47
-33 -3 2 -22 1 -40 -3 -40 -18 0 -152 105 -200 158 -57 61 -149 191 -149 210
0 17 132 74 141 61 8 -14 38 7 252 174 77 59 162 119 190 134 122 62 229 77
340 48z"/>
<path d="M5289 2444 c-313 -62 -495 -346 -475 -739 7 -139 25 -224 68 -311 60
-124 161 -203 308 -240 52 -13 94 -15 210 -11 161 7 250 26 381 84 l57 25 -23
56 c-22 55 -47 113 -51 121 -2 1 -45 -11 -96 -27 -127 -42 -205 -55 -291 -50
-77 5 -136 29 -174 70 -29 31 -71 124 -75 168 l-3 35 90 8 c402 34 656 235
631 500 -8 88 -52 184 -103 226 -105 86 -283 120 -454 85z m196 -214 c47 -29
68 -80 63 -150 -10 -133 -132 -226 -341 -261 -98 -16 -103 -10 -83 109 9 50
25 116 37 148 24 64 82 133 132 158 48 23 151 21 192 -4z"/>
<path d="M7688 2444 c-119 -28 -235 -112 -281 -200 -31 -59 -42 -147 -28 -220
26 -141 94 -216 271 -301 63 -30 130 -62 148 -71 39 -20 99 -82 112 -118 15
-39 12 -107 -6 -133 -23 -32 -90 -61 -145 -61 -57 0 -179 39 -267 85 -36 19
-69 32 -73 30 -11 -8 -91 -195 -87 -206 11 -32 270 -113 401 -125 146 -13 307
44 391 137 64 72 88 129 94 225 11 195 -69 300 -310 405 -132 58 -186 99 -217
162 -37 76 -20 140 46 171 61 29 144 19 298 -38 38 -14 73 -22 77 -18 15 15
87 187 80 193 -18 17 -189 71 -264 84 -101 18 -164 18 -240 -1z"/>
<path d="M6084 2421 c-2 -2 -4 -213 -4 -467 0 -372 3 -477 15 -534 26 -126 79
-201 173 -247 55 -27 62 -28 212 -28 143 1 161 3 234 28 244 85 362 271 412
647 17 126 18 459 3 544 l-12 61 -146 -2 c-133 -2 -146 -4 -144 -20 37 -315
24 -586 -37 -794 -54 -179 -157 -281 -272 -266 -55 7 -88 33 -118 93 l-25 49
-5 468 -5 468 -138 2 c-76 1 -141 0 -143 -2z"/>
</g>
</svg>
